<?xml version="1.0" encoding="UTF-8" standalone="no"?>
<svg
   xmlns:dc="http://purl.org/dc/elements/1.1/"
   xmlns:cc="http://creativecommons.org/ns#"
   xmlns:rdf="http://www.w3.org/1999/02/22-rdf-syntax-ns#"
   xmlns:svg="http://www.w3.org/2000/svg"
   xmlns="http://www.w3.org/2000/svg"
   viewBox="0 0 1133.3333 1133.3333"
   height="1133.3333"
   width="1133.3333"
   xml:space="preserve"
   id="svg2"
   version="1.1"><metadata
     id="metadata8"><rdf:RDF><cc:Work
         rdf:about=""><dc:format>image/svg+xml</dc:format><dc:type
           rdf:resource="http://purl.org/dc/dcmitype/StillImage" /></cc:Work></rdf:RDF></metadata><defs
     id="defs6" /><g
     transform="matrix(1.3333333,0,0,-1.3333333,0,1133.3333)"
     id="g10"><path
       id="path12"
       style="fill:#373535;fill-opacity:1;fill-rule:nonzero;stroke:none"
       d="m 427.5139,635.1812 c 63.3214,0 120.649,-25.6669 162.146,-67.1638 30.3743,-30.3744 52.2655,-69.2326 61.8191,-112.7132 h -3.0751 c -9.5028,42.6504 -31.0388,80.7658 -60.8649,110.5926 -40.9538,40.9535 -97.5314,66.2842 -160.0251,66.2842 -62.494,0 -119.0719,-25.3307 -160.0251,-66.2842 C 237.6624,536.07 216.1264,497.9546 206.6236,455.3042 h -3.0753 c 9.5536,43.4806 31.445,82.3388 61.8193,112.7132 41.497,41.4969 98.8246,67.1638 162.1463,67.1638" /><path
       id="path14"
       style="fill:#373535;fill-opacity:1;fill-rule:nonzero;stroke:none"
       d="m 642.7933,326.7184 c -11.5801,-31.4841 -29.8681,-59.7274 -53.1334,-82.9927 -41.4973,-41.4973 -98.8248,-67.1638 -162.146,-67.1638 -63.3217,0 -120.649,25.6665 -162.1463,67.1638 -23.2653,23.2653 -41.5533,51.5086 -53.1334,82.9927 h 3.2026 c 11.4468,-30.6567 29.3465,-58.1663 52.052,-80.8718 40.9532,-40.9539 97.5314,-66.2846 160.0251,-66.2846 62.4934,0 119.0713,25.3307 160.0251,66.2846 22.7052,22.7055 40.6049,50.2151 52.0515,80.8718 z" /><path
       id="path16"
       style="fill:#a6c2b6;fill-opacity:1;fill-rule:evenodd;stroke:none"
       d="m 427.5139,651.0832 c 12.1924,0 22.0765,-9.8841 22.0765,-22.0765 0,-12.1923 -9.8841,-22.0765 -22.0765,-22.0765 -12.1927,0 -22.0765,9.8842 -22.0765,22.0765 0,12.1924 9.8838,22.0765 22.0765,22.0765" /><path
       id="path18"
       style="fill:#a6c2b6;fill-opacity:1;fill-rule:evenodd;stroke:none"
       d="m 427.5139,236.0718 c 19.1049,0 34.5932,-15.4882 34.5932,-34.5931 0,-19.1055 -15.4883,-34.5938 -34.5932,-34.5938 -19.1052,0 -34.5937,15.4883 -34.5937,34.5938 0,19.1049 15.4885,34.5931 34.5937,34.5931" /><path
       id="path20"
       style="fill:#a6c2b6;fill-opacity:1;fill-rule:nonzero;stroke:none"
       d="M 630.1429,331.3701 C 619.2431,301.7356 602.03,275.1523 580.1315,253.2538 551.1112,224.2344 513.8649,203.4437 472.1922,194.6716 v 2.8868 c 40.8914,8.7278 77.4388,29.1877 105.9429,57.6921 21.3712,21.3709 38.2186,47.2646 48.9928,76.1196 z" /><path
       id="path22"
       style="fill:#a6c2b6;fill-opacity:1;fill-rule:nonzero;stroke:none"
       d="m 464.7254,618.5058 c 44.6896,-7.7669 84.6638,-29.2745 115.4061,-60.0165 28.5897,-28.5897 49.1941,-65.1646 58.1865,-106.0903 h -2.8948 c -8.9441,40.1445 -29.2147,76.0201 -57.2881,104.0935 -30.2281,30.2281 -69.5007,51.4112 -113.4097,59.1475 z" /><path
       id="path24"
       style="fill:#a6c2b6;fill-opacity:1;fill-rule:nonzero;stroke:none"
       d="m 223.7117,331.3701 c 10.8997,-29.6345 28.1128,-56.2178 50.0113,-78.1163 29.0203,-29.0194 66.2667,-49.8101 107.9394,-58.5822 v 2.8868 c -40.8915,8.7278 -77.4389,29.1877 -105.9429,57.6921 -21.3713,21.3709 -38.2187,47.2646 -48.9929,76.1196 z" /><path
       id="path26"
       style="fill:#a6c2b6;fill-opacity:1;fill-rule:nonzero;stroke:none"
       d="M 389.1288,618.5058 C 344.4395,610.7389 304.4653,589.2313 273.723,558.4893 245.1334,529.8996 224.5289,493.3247 215.5365,452.399 h 2.8948 c 8.9441,40.1445 29.2147,76.0201 57.2882,104.0935 30.2281,30.2281 69.5007,51.4112 113.4093,59.1475 z" /><path
       id="path28"
       style="fill:#373535;fill-opacity:1;fill-rule:nonzero;stroke:none"
       d="m 386.0325,298.4644 c 0,5.9306 1.266,11.4454 3.8155,16.5087 2.5492,5.0811 6.256,9.4932 11.1206,13.2721 3.6521,2.8029 7.5758,4.9362 11.7708,6.4372 4.2135,1.5006 8.4444,2.26 12.7117,2.26 5.4428,0 10.7051,-1.1934 15.8037,-3.5798 5.0811,-2.3868 9.5293,-5.7501 13.345,-10.09 6.2198,-7.0701 9.3299,-15.0981 9.3299,-24.1211 0,-4.521 -0.8132,-8.8787 -2.4412,-13.0915 -1.6273,-4.195 -3.996,-8.0283 -7.1061,-11.5005 -3.8149,-4.3032 -8.3177,-7.6484 -13.5253,-10.017 -5.2072,-2.369 -10.6684,-3.5442 -16.3462,-3.5442 -5.6231,0 -10.9936,1.1574 -16.1107,3.4534 -5.1356,2.2967 -9.5474,5.5336 -13.2546,9.7461 -2.9287,3.2911 -5.1893,7.0161 -6.7626,11.2111 -1.5726,4.1771 -2.3505,8.5348 -2.3505,13.0555 z m 12.8019,-0.7594 c 0,-10.2711 2.7847,-18.9139 8.3724,-25.9478 2.5135,-3.1465 5.1715,-5.4428 7.9923,-6.8715 2.8026,-1.4283 6.057,-2.1517 9.7279,-2.1517 3.7069,0 6.9795,0.7055 9.7824,2.1154 2.821,1.429 5.4969,3.7251 8.0467,6.9078 5.587,7.0702 8.3715,15.7856 8.3715,26.1465 0,5.6956 -0.7772,11.084 -2.3145,16.1651 -1.5366,5.0811 -3.6884,9.385 -6.491,12.9107 -2.2607,2.9115 -4.7738,5.027 -7.5583,6.3471 -2.7666,1.3198 -6.0579,1.9885 -9.8368,1.9885 -3.7432,0 -6.9976,-0.6509 -9.7279,-1.971 -2.7485,-1.3016 -5.2801,-3.4171 -7.6131,-6.3646 -2.7841,-3.4897 -4.9543,-7.7936 -6.4731,-12.8925 -1.5189,-5.0811 -2.2785,-10.5599 -2.2785,-16.382" /><path
       id="path30"
       style="fill:#373535;fill-opacity:1;fill-rule:nonzero;stroke:none"
       d="m 345.9132,262.734 v 1.1933 c 2.007,0.1089 3.6528,0.3977 4.9181,0.8499 1.2838,0.4524 2.405,1.1934 3.3996,2.224 1.0848,1.1396 1.8267,2.5677 2.2244,4.3039 0.3793,1.7356 0.5782,4.4121 0.5782,8.0643 l 0.0545,10.3433 c 0,1.4822 -0.3073,3.1277 -0.9043,4.936 -0.669,2.0795 -2.0429,4.7012 -4.1224,7.848 l -13.7242,20.6314 -2.4412,3.725 c -1.7901,2.6762 -3.562,4.5204 -5.2983,5.5151 -0.8861,0.5244 -1.7716,0.9036 -2.6399,1.1211 -0.8861,0.1987 -2.1333,0.3432 -3.7068,0.4155 v 1.1937 h 34.5727 v -1.1937 c -2.929,-0.1805 -4.7917,-0.434 -5.6049,-0.7957 -1.9712,-0.8495 -2.9656,-2.3867 -2.9656,-4.6105 0,-0.8138 0.2168,-1.7362 0.6511,-2.7666 0.4515,-1.0307 1.1571,-2.3145 2.1333,-3.8696 l 14.285,-22.4943 12.3497,19.2033 1.3745,2.1699 c 1.3201,2.0611 1.9706,4.0686 1.9706,6.0573 0,2.2604 -0.7228,4.0145 -2.1878,5.2439 -1.4465,1.2478 -3.4894,1.8623 -6.1117,1.8623 v 1.1937 h 24.3567 v -1.1937 c -1.8261,-0.2168 -3.2366,-0.5241 -4.2135,-0.9218 -0.9944,-0.4161 -1.9887,-1.0851 -3.0191,-1.9894 -2.3874,-2.2785 -5.0451,-5.6418 -7.9563,-10.1437 l -12.151,-18.4618 c -1.465,-2.1884 -2.3511,-3.7976 -2.6583,-4.8283 -0.3255,-1.0306 -0.4882,-2.7481 -0.4882,-5.1893 v -13.0011 c 0,-3.7789 0.1809,-6.5092 0.5604,-8.155 0.3802,-1.6455 1.1211,-3.0376 2.2607,-4.2132 1.9528,-2.0429 4.7369,-3.0739 8.3537,-3.0739 v -1.1933 z" /><path
       id="path32"
       style="fill:#373535;fill-opacity:1;fill-rule:nonzero;stroke:none"
       d="m 490.8784,335.0985 v -1.1937 c -2.025,-0.1085 -3.6706,-0.398 -4.9544,-0.8495 -1.2656,-0.4524 -2.3867,-1.1934 -3.3267,-2.2244 -1.1755,-1.1934 -1.9531,-2.6762 -2.3148,-4.4484 -0.3795,-1.7716 -0.5607,-4.8095 -0.5607,-9.1131 v -29.9979 c 0,-4.8821 0.1812,-8.4081 0.5607,-10.5783 0.3617,-2.1697 1.1211,-4.1766 2.2604,-6.0032 1.6996,-2.8027 3.7973,-4.8274 6.2745,-6.0755 2.4953,-1.2476 5.6415,-1.8805 9.4388,-1.8805 3.6705,0 7.1787,0.5604 10.5239,1.6639 3.3448,1.1211 6.1293,2.6578 8.3715,4.6465 1.3743,1.23 2.3871,2.5679 3.0382,4.0323 0.669,1.4468 1.103,3.2732 1.3017,5.4973 0.1445,1.4468 0.2171,4.8821 0.2171,10.2889 v 29.618 c 0,3.6343 -0.1993,6.329 -0.6148,8.0649 -0.3977,1.7178 -1.1571,3.1462 -2.2604,4.2851 -0.9762,1.031 -2.0973,1.772 -3.363,2.2244 -1.2478,0.4515 -2.893,0.741 -4.9005,0.8495 v 1.1937 h 24.4287 v -1.1937 c -2.007,-0.1085 -3.6343,-0.3795 -4.9,-0.8495 -1.2475,-0.4524 -2.3686,-1.1934 -3.363,-2.2244 -1.0851,-1.1211 -1.8445,-2.5673 -2.2422,-4.3217 -0.4162,-1.7356 -0.6152,-4.4118 -0.6152,-8.0283 v -33.4338 c 0,-4.9359 -0.3795,-8.5886 -1.1389,-10.9394 -0.7594,-2.3505 -2.2607,-4.4841 -4.5204,-6.4372 -5.1534,-4.4481 -12.5127,-6.6722 -22.0967,-6.6722 -9.981,0 -17.3403,2.0974 -22.0782,6.3108 -3.0739,2.6762 -4.8999,6.2198 -5.4963,10.5959 -0.2175,1.5551 -0.3257,4.3577 -0.3257,8.426 v 32.1499 c 0,3.6528 -0.199,6.329 -0.5789,8.0649 -0.3977,1.7178 -1.1568,3.164 -2.2779,4.2851 -0.9587,1.031 -2.0616,1.772 -3.3095,2.2244 -1.2653,0.47 -2.9108,0.741 -4.9543,0.8495 v 1.1937 z" /><path
       id="path34"
       style="fill:#373535;fill-opacity:1;fill-rule:nonzero;stroke:none"
       d="M 101.2969,477.5564 H 97.5254 L 63.2911,391.8197 c -0.9794,-2.4514 -2.0114,-4.5073 -3.0946,-6.1741 -1.1043,-1.6999 -2.2682,-3.0027 -3.49,-3.9127 -1.224,-0.9116 -2.6614,-1.5973 -4.3115,-2.0531 -1.4275,-0.3943 -3.0101,-0.6174 -4.7466,-0.667 v -3.7196 h 35.3874 v 3.7091 h -2.6994 c -2.0548,0 -3.8724,0.2087 -5.4555,0.6248 -1.6127,0.424 -2.9798,1.0658 -4.1032,1.9241 -1.1273,0.8615 -1.982,1.8216 -2.5586,2.8764 -0.5862,1.0723 -0.8815,2.2297 -0.8815,3.4673 0,1.0122 0.1664,2.2025 0.4958,3.5694 0.3228,1.3408 0.8013,2.8443 1.4312,4.5082 1.7557,3.6873 3.4256,8.8787 4.9521,12.829 h 41.195 c 2.7173,-6.9689 6.3429,-15.0395 8.5896,-22.0039 0.1808,-0.4779 0.3161,-0.94 0.4048,-1.3844 0.0918,-0.4595 0.138,-0.9077 0.138,-1.3431 0,-0.796 -0.1902,-1.5012 -0.5661,-2.1146 -0.3719,-0.6066 -0.917,-1.1067 -1.6304,-1.4984 l -0.0117,-0.006 c -0.9448,-0.4977 -2.2036,-0.8645 -3.7717,-1.1027 -1.5256,-0.2315 -3.3582,-0.3461 -5.4939,-0.3461 h -2.4879 v -3.7091 h 39.0478 v 3.7091 h -2.418 c -2.4052,0 -4.42,0.5077 -6.0403,1.5186 -1.6404,1.0235 -2.8565,2.5474 -3.644,4.5674 z m -24.9871,-63.8793 18.8186,47.1198 18.7801,-48.1453 h -38.008 z m 75.7412,3.1496 h 3.7862 c 0.6287,3.2944 1.3657,6.0718 2.2139,8.3307 0.9204,2.45 1.9811,4.3113 3.1881,5.5815 2.4012,2.5514 5.7518,3.8276 10.025,3.8276 h 7.2028 v -49.0416 c 0,-4.3484 -2.2221,-6.5226 -6.6399,-6.5226 h -6.0312 v -3.7091 h 35.1056 v 3.7091 h -6.5006 c -1.8593,0 -3.2783,0.4479 -4.2554,1.3462 -0.995,0.9145 -1.4927,2.2479 -1.4927,4.0031 v 50.2149 h 7.9069 c 1.8525,0 3.57,-0.2719 5.1449,-0.8119 1.5834,-0.5428 3.0197,-1.358 4.3021,-2.4406 1.3136,-1.1114 2.4815,-2.9472 3.5022,-5.5083 0.94,-2.3587 1.7655,-5.3515 2.475,-8.979 h 3.7876 l -1.5131,21.4489 h -60.7161 z m 110.3241,-41.5335 h 1.923 l 26.2103,62.9824 h -3.9765 l -19.6693,-47.6541 -18.4399,47.6541 h -10.2458 z m -22.3401,60.7524 v 2.23 h -15.3947 v -3.7091 h 4.0836 c 1.4853,0 2.7192,-0.1596 3.6975,-0.4785 1.0621,-0.3464 1.8371,-0.8844 2.3201,-1.6129 0.4448,-0.6594 0.777,-1.5401 0.993,-2.634 0.2055,-1.0391 0.3098,-2.2821 0.3098,-3.7213 V 388.059 c 0,-1.5865 -0.117,-2.9545 -0.348,-4.0935 -0.2424,-1.1939 -0.6137,-2.1384 -1.1095,-2.8222 -0.5264,-0.7358 -1.3034,-1.2824 -2.3267,-1.6387 -0.9612,-0.3347 -2.1416,-0.5023 -3.5362,-0.5023 h -4.0836 v -3.7091 h 27.0805 v 3.7091 h -3.7554 c -1.5573,0 -2.8618,0.1582 -3.9126,0.4782 -1.1282,0.3433 -1.9704,0.8759 -2.5248,1.601 l -0.006,0.009 c -0.9913,1.3303 -1.487,3.6621 -1.487,6.9687 v 47.9866 z m 71.9163,2.23 h -22.716 v -52.7507 c 0,-4.3484 -2.2223,-6.5226 -6.6398,-6.5226 h -6.0316 v -3.7091 h 35.2466 v 3.7091 h -6.5946 c -1.8694,0 -3.2992,0.4468 -4.2848,1.3434 -1.0055,0.9144 -1.5103,2.2487 -1.5103,4.0059 v 43.7627 c 0,2.1078 0.5618,3.7108 1.6821,4.8084 1.118,1.0956 2.7487,1.6438 4.8875,1.6438 h 5.9609 z m 62.1882,-7.2952 c -5.7404,6.0834 -12.8336,9.1256 -21.3012,9.1256 -4.1528,0 -7.9753,-0.7699 -11.4662,-2.306 -3.5008,-1.5407 -6.6767,-3.8517 -9.5258,-6.9293 -2.838,-3.0813 -4.9686,-6.6266 -6.3893,-10.6322 -1.4258,-4.0215 -2.139,-8.5153 -2.139,-13.4776 0,-4.947 0.712,-9.4261 2.1331,-13.436 1.4176,-4.0013 3.5435,-7.5435 6.3734,-10.6253 2.8301,-3.0824 5.97,-5.3944 9.4158,-6.9327 3.4384,-1.535 7.1963,-2.304 11.2694,-2.304 2.7559,0 5.4128,0.3481 7.9725,1.0474 2.565,0.7004 5.0445,1.7546 7.4395,3.1634 2.3859,1.4128 4.4926,3.0717 6.3173,4.9791 1.8252,1.9077 3.3803,4.0759 4.6638,6.5058 l 0.003,0.003 c 1.2906,2.4103 2.258,5.0862 2.9041,8.0255 0.648,2.9497 0.9708,6.165 0.9708,9.6446 0,5.0096 -0.7237,9.5306 -2.1671,13.5552 -1.4394,4.013 -3.5988,7.5467 -6.474,10.5937 z m -28.6719,3.8647 c 2.2195,1.2209 4.6746,1.8332 7.3707,1.8332 2.8499,0 5.4207,-0.5788 7.7108,-1.7391 2.2887,-1.1596 4.2845,-2.8955 5.9862,-5.2092 1.7033,-2.3017 2.9778,-5.2923 3.8219,-8.975 0.8345,-3.6434 1.2524,-7.9702 1.2524,-12.985 0,-5.3838 -0.4221,-10.027 -1.2626,-13.9246 -0.8518,-3.9492 -2.1364,-7.1413 -3.85,-9.5723 -1.7339,-2.4548 -3.7383,-4.2971 -6.0154,-5.529 -2.2847,-1.2368 -4.8322,-1.8536 -7.6433,-1.8536 -2.7196,0 -5.1931,0.6188 -7.4209,1.8595 -2.2132,1.2326 -4.1691,3.0751 -5.866,5.5287 -1.6974,2.4276 -2.9678,5.5491 -3.81,9.3626 -0.8345,3.7806 -1.2524,8.2403 -1.2524,13.3778 0,5.0471 0.4179,9.4315 1.2552,13.1522 0.8462,3.7582 2.1246,6.8409 3.8367,9.2449 1.7212,2.4049 3.6819,4.2163 5.8867,5.4289 z m 100.0752,-42.9536 -3.0404,0.8892 c -3.9289,-9.9354 -9.8983,-14.9046 -17.9073,-14.9046 -2.9557,0 -5.6617,0.62 -8.11,1.8564 -2.44,1.2323 -4.6139,3.0748 -6.5143,5.5231 -1.8921,2.438 -3.3091,5.4428 -4.2497,9.013 -0.9326,3.5393 -1.3991,7.6331 -1.3991,12.2811 0,4.883 0.5252,9.2937 1.5749,13.2372 1.0548,3.9617 2.641,7.4498 4.7577,10.4681 l 0.003,0.006 c 1.5174,2.1345 3.3897,3.7398 5.6197,4.813 2.2198,1.0684 4.7812,1.6044 7.6844,1.6044 1.5888,0 3.0271,-0.167 4.3107,-0.4969 1.3079,-0.3362 2.4477,-0.8436 3.4146,-1.518 l 0.006,-0.003 c 0.9627,-0.6837 1.6923,-1.3853 2.1881,-2.103 0.5355,-0.7747 0.8033,-1.5679 0.8033,-2.3783 0,-0.3818 -0.1253,-0.8005 -0.3753,-1.258 -0.2143,-0.392 -0.5264,-0.8235 -0.9354,-1.2963 l -0.003,-0.003 c -0.7416,-0.8504 -1.2969,-1.7201 -1.6654,-2.6053 -0.3603,-0.8655 -0.5409,-1.7507 -0.5409,-2.6516 0,-0.913 0.1565,-1.7507 0.4712,-2.5115 0.3177,-0.7639 0.7968,-1.4627 1.4385,-2.0942 l 0.003,-0.003 c 0.6409,-0.6407 1.3544,-1.1194 2.1362,-1.4369 0.7877,-0.3198 1.6531,-0.4788 2.5928,-0.4788 0.9627,0 1.8508,0.1879 2.6637,0.5604 0.8235,0.3773 1.5832,0.9471 2.2765,1.7045 0.7059,0.7699 1.2362,1.6378 1.5897,2.6076 0.3558,0.9762 0.5341,2.065 0.5341,3.2709 0,2.0143 -0.4862,3.9333 -1.4582,5.7583 -0.9862,1.8524 -2.4766,3.6215 -4.4699,5.309 -1.9925,1.6869 -4.2461,2.9497 -6.7644,3.7899 -2.5282,0.8439 -5.3356,1.2643 -8.4271,1.2643 -4.1147,0 -7.9611,-0.7606 -11.5327,-2.2814 -3.5756,-1.5225 -6.8859,-3.8092 -9.9238,-6.8587 v -0.003 c -6.0951,-6.0948 -9.1432,-14.718 -9.1432,-25.8678 0,-4.8087 0.6945,-9.1299 2.0829,-12.9651 1.3836,-3.822 3.4586,-7.1725 6.2243,-10.0523 2.7647,-2.8675 5.9222,-5.0207 9.4743,-6.4559 3.5597,-1.4383 7.5268,-2.1588 11.9029,-2.1588 5.9111,0 10.7677,1.584 14.5661,4.7486 3.6743,3.0614 6.3893,7.6229 8.1417,13.68 z m 44.4708,-15.4749 c 2.8088,1.9927 5.2373,4.9946 7.2924,9.0022 l 1.415,2.7596 v -30.2018 c 0,-1.8192 -0.6593,-3.198 -1.9802,-4.1315 -1.2354,-0.873 -3.0382,-1.3116 -5.4105,-1.3116 h -4.0133 v -3.7091 h 32.853 v 3.7091 h -3.9901 c -2.3598,0 -4.1576,0.5573 -5.3887,1.6643 -1.2551,1.1287 -1.8847,2.7822 -1.8847,4.9521 v 29.0282 l 1.415,-2.7593 c 2.0552,-4.0076 4.4836,-7.0095 7.2925,-9.0022 2.7742,-1.9681 5.9385,-2.9537 9.5008,-2.9537 3.2213,0 6.2442,0.7509 9.0698,2.2498 2.8462,1.51 5.5034,3.7817 7.9724,6.8111 2.4622,3.0351 4.3132,6.5492 5.5485,10.5387 1.2396,4.0025 1.861,8.4917 1.861,13.4637 0,4.6196 -0.5871,8.8818 -1.7581,12.7828 -1.169,3.8945 -2.9211,7.4341 -5.2523,10.6155 v 0.003 c -2.3156,3.1714 -4.8934,5.5463 -7.7383,7.1246 -2.8224,1.5664 -5.9221,2.3496 -9.3041,2.3496 -3.6295,0 -6.9015,-1.1545 -9.8116,-3.4631 -2.9554,-2.3445 -5.5539,-5.881 -7.791,-10.6078 l -1.427,-3.0146 v 54.0816 l -23.8422,-1.0593 v -3.744 h 5.0457 c 1.2923,0 2.4741,-0.1698 3.541,-0.5057 1.0871,-0.3421 2.0526,-0.8575 2.8911,-1.5415 0.8705,-0.71 1.523,-1.5735 1.9582,-2.5846 0.4286,-0.9961 0.6431,-2.1282 0.6431,-3.3925 v -40.6729 l -1.4269,3.0467 c -2.1186,4.5235 -4.6083,7.9041 -7.4656,10.1446 -2.8179,2.2093 -6.0103,3.3131 -9.5738,3.3131 -3.4047,0 -6.5222,-0.7891 -9.354,-2.3672 -2.8511,-1.5882 -5.4278,-3.9804 -7.7321,-7.1745 -4.6443,-6.4173 -6.9667,-14.2024 -6.9667,-23.3339 0,-4.9558 0.6174,-9.4394 1.8547,-13.4433 1.2294,-3.9793 3.0736,-7.4943 5.5341,-10.5387 2.4593,-3.0427 5.0987,-5.32 7.9228,-6.8315 2.8021,-1.4998 5.8006,-2.2498 8.9992,-2.2498 3.5623,0 6.7266,0.9856 9.5009,2.9537 z m 7.5812,40.6601 c 0.7495,-3.3426 1.1262,-6.9585 1.1262,-10.8555 0,-4.7957 -0.4178,-8.9589 -1.2523,-12.4892 -0.8447,-3.5725 -2.12,-6.5044 -3.8248,-8.7934 -1.7073,-2.2926 -3.5867,-4.0166 -5.6404,-5.1709 -2.0764,-1.1673 -4.3225,-1.751 -6.7399,-1.751 -2.0461,0 -3.9155,0.6041 -5.6038,1.8091 -1.6515,1.1781 -3.1167,2.9282 -4.3915,5.2449 -1.2574,2.285 -2.1991,5.171 -2.8241,8.6534 -0.6199,3.4545 -0.9303,7.4888 -0.9303,12.0982 0,9.529 1.1573,16.7052 3.4693,21.5243 2.3981,4.9998 6.0137,7.5014 10.8436,7.5014 2.5966,0 4.9335,-0.7254 7.0158,-2.1762 2.048,-1.4267 3.8375,-3.5546 5.3731,-6.3822 l 0.003,-0.003 c 1.4978,-2.7922 2.6249,-5.8598 3.376,-9.2101 z m 39.1686,10.2759 c 2.3272,-4.8189 3.4912,-11.9968 3.4912,-21.5303 0,-4.3412 -0.2966,-8.1997 -0.8864,-11.573 -0.5953,-3.4044 -1.4933,-6.3221 -2.6893,-8.7505 -1.226,-2.4676 -2.6869,-4.3237 -4.3846,-5.5727 -1.7314,-1.2738 -3.6918,-1.9094 -5.8836,-1.9094 -2.3933,0 -4.6346,0.591 -6.7167,1.7688 -2.0574,1.1639 -3.9478,2.8982 -5.6633,5.1974 -1.7147,2.2986 -3.0016,5.2339 -3.8566,8.8072 -0.8441,3.5269 -1.2676,7.67 -1.2676,12.4311 0,3.9208 0.3764,7.5543 1.1321,10.9023 0.758,3.3585 1.8973,6.4222 3.4203,9.1922 1.5469,2.8139 3.3424,4.9351 5.3907,6.3592 2.0823,1.4474 4.4132,2.1731 6.9981,2.1731 4.864,0 8.5029,-2.4999 10.9157,-7.4954 z m 39.1825,-20.2405 h 45.2769 c -0.0697,2.8687 -0.2968,5.5074 -0.6803,7.9146 -0.4139,2.5985 -1.0114,4.9263 -1.7921,6.9812 -1.1222,2.9242 -2.5154,5.5094 -4.1799,7.7524 -1.6552,2.2306 -3.5819,4.123 -5.7813,5.673 -2.209,1.5599 -4.6188,2.7278 -7.2309,3.5053 -2.6167,0.779 -5.4437,1.1674 -8.4827,1.1674 -4.1301,0 -7.929,-0.7813 -11.3958,-2.3437 -3.4705,-1.5639 -6.6203,-3.915 -9.4479,-7.0515 -2.829,-3.1382 -4.949,-6.7663 -6.3621,-10.8853 -1.4184,-4.1349 -2.1265,-8.771 -2.1265,-13.9093 0,-4.7577 0.718,-9.0839 2.156,-12.9765 1.4341,-3.8817 3.5864,-7.3397 6.4587,-10.372 2.873,-3.0333 6.0767,-5.3109 9.6095,-6.8286 3.5297,-1.5165 7.397,-2.2762 11.6008,-2.2762 6.1619,0 11.5962,1.582 16.2989,4.7423 4.5462,3.0555 8.4285,7.5955 11.6428,13.6157 l -3.0901,1.3334 c -2.7031,-4.9175 -5.8311,-8.6386 -9.3827,-11.1603 -3.7335,-2.6512 -7.9203,-3.9773 -12.5592,-3.9773 -3.156,0 -6.0338,0.5916 -8.6377,1.7717 -2.6062,1.1812 -4.9274,2.946 -6.969,5.2914 l -0.006,0.009 c -1.7844,2.1022 -3.1493,4.9445 -4.0932,8.5187 -0.9298,3.5215 -1.4548,7.7695 -1.5736,12.7372 l -0.0184,0.7676 h 0.7657 z m 27.8767,3.4276 h -28.6367 l 0.0127,0.7617 c 0.0715,4.3135 0.5483,8.0926 1.427,11.3332 0.8904,3.2837 2.1974,6.0319 3.9172,8.2395 1.7195,2.2076 3.6374,3.865 5.7518,4.9742 2.1294,1.1174 4.4447,1.6747 6.9451,1.6747 2.2479,0 4.3444,-0.4646 6.2944,-1.3932 1.9343,-0.921 3.7199,-2.3006 5.3614,-4.1386 l 0.003,-0.003 c 1.6245,-1.8321 2.8462,-3.8594 3.6606,-6.0801 0.8141,-2.2198 1.2229,-4.6298 1.2229,-7.2272 0,-1.4071 -0.1182,-2.6146 -0.3577,-3.6221 -0.2526,-1.063 -0.6438,-1.9156 -1.1761,-2.5574 -0.5332,-0.6528 -1.1767,-1.1446 -1.9273,-1.4743 -0.7401,-0.3246 -1.5747,-0.4876 -2.4982,-0.4876 z m 49.2072,22.6027 c -0.2676,2.0282 -0.6225,4.1051 -1.0689,6.228 l -19.5115,-1.0534 v -3.2187 c 1.9795,-0.093 3.6612,-0.3067 5.0451,-0.6381 1.626,-0.3895 2.8607,-0.9482 3.7021,-1.671 l 0.006,-0.006 c 1.6736,-1.4644 2.5107,-3.8812 2.5107,-7.2737 v -67.7679 c 0,-0.8152 -0.1616,-1.5647 -0.4876,-2.245 -0.324,-0.6761 -0.8042,-1.2677 -1.4422,-1.77 -0.6231,-0.498 -1.3958,-0.8728 -2.3142,-1.1188 -0.8822,-0.2361 -1.9012,-0.356 -3.053,-0.356 h -3.9665 v -3.4277 h 32.8533 v 3.4277 h -3.9665 c -1.1682,0 -2.2218,0.1485 -3.1564,0.4487 -0.9451,0.3033 -1.7635,0.7631 -2.4506,1.3816 -0.5833,0.5111 -1.0136,1.1829 -1.294,2.0202 -0.2647,0.7918 -0.396,1.7275 -0.396,2.8126 v 28.7209 l 1.3887,-2.2584 c 1.2311,-2.0021 2.5438,-3.746 3.9424,-5.2358 1.3944,-1.4854 2.8772,-2.7247 4.4527,-3.7222 1.5571,-0.9817 3.2054,-1.7212 4.9453,-2.2147 1.7411,-0.4938 3.5807,-0.7421 5.5205,-0.7421 3.4373,0 6.6203,0.6638 9.5539,1.9916 2.9398,1.3303 5.6398,3.3313 8.1045,6.0015 l 0.003,0.003 c 2.9906,3.2193 5.2317,6.918 6.7258,11.0937 1.499,4.1885 2.247,8.8622 2.247,14.0207 0,3.2287 -0.3053,6.2881 -0.9156,9.1749 -0.608,2.8763 -1.5224,5.5942 -2.7422,8.1488 -1.2186,2.5523 -2.6195,4.7976 -4.2021,6.7314 -1.5718,1.9213 -3.3239,3.5371 -5.2546,4.843 -1.9403,1.3124 -3.9268,2.2983 -5.9544,2.9526 -2.0169,0.6508 -4.0859,0.9779 -6.2039,0.9779 -1.9933,0 -3.8994,-0.2486 -5.7198,-0.748 -1.8232,-0.5001 -3.5742,-1.2544 -5.2537,-2.2644 -1.675,-1.0074 -3.3171,-2.3669 -4.9249,-4.0801 -1.6214,-1.728 -3.2057,-3.8138 -4.7517,-6.2595 l -1.2782,-2.0217 -0.102,2.391 c -0.0936,2.1943 -0.2886,4.4371 -0.5899,6.7233 z m 12.1725,-0.2098 c 2.2218,1.277 4.6401,1.9154 7.2564,1.9154 2.4857,0 4.7546,-0.5658 6.8009,-1.6969 2.033,-1.1233 3.8359,-2.8 5.4031,-5.0286 1.5721,-2.2297 2.7445,-5.18 3.5198,-8.858 0.7657,-3.6309 1.1469,-7.9761 1.1469,-13.0433 0,-4.8277 -0.4235,-9.0907 -1.2705,-12.7846 -0.8532,-3.721 -2.1393,-6.8663 -3.8568,-9.4308 l -0.006,-0.009 c -1.3731,-1.9914 -3.0478,-3.4855 -5.0204,-4.4841 -1.9718,-0.9981 -4.2276,-1.4962 -6.7643,-1.4962 -2.7023,0 -5.1766,0.5808 -7.4163,1.7419 -2.2297,1.156 -4.2145,2.8811 -5.9465,5.1741 -1.7266,2.2859 -3.0192,5.1882 -3.8775,8.7058 -0.8487,3.4781 -1.2731,7.5557 -1.2731,12.2309 0,4.6429 0.4422,8.7389 1.323,12.2953 0.8883,3.5864 2.2243,6.6223 4.0036,9.1162 1.787,2.5044 3.7789,4.3883 5.9774,5.6517 z m 96.5243,44.6238 h -3.7715 l -34.2343,-85.7367 c -0.9794,-2.4514 -2.0112,-4.5073 -3.0943,-6.1741 -1.1044,-1.6999 -2.2686,-3.0027 -3.4903,-3.9127 -1.2238,-0.9116 -2.6615,-1.5973 -4.3115,-2.0531 -1.4276,-0.3943 -3.0101,-0.6174 -4.7467,-0.667 v -3.7196 h 35.3875 v 3.7091 h -2.6995 c -2.0545,0 -3.8724,0.2087 -5.4555,0.6248 -1.6124,0.424 -2.9798,1.0658 -4.1032,1.9241 -1.1273,0.8615 -1.9819,1.8216 -2.5585,2.8764 -0.5862,1.0723 -0.8816,2.2297 -0.8816,3.4673 0,1.0122 0.1664,2.2025 0.4958,3.5694 0.3229,1.3408 0.8016,2.8443 1.4312,4.5082 1.7544,3.6839 3.4288,8.8815 4.9518,12.829 h 41.1951 c 2.7187,-6.9621 6.3448,-15.0446 8.5898,-22.0039 0.1809,-0.4779 0.3161,-0.94 0.4048,-1.3844 0.0919,-0.4595 0.1381,-0.9077 0.1381,-1.3431 0,-0.796 -0.1902,-1.5012 -0.5661,-2.1146 -0.3716,-0.6069 -0.9173,-1.107 -1.6305,-1.4984 l -0.0116,-0.006 c -0.9448,-0.4977 -2.2037,-0.8645 -3.7718,-1.1027 -1.5256,-0.2315 -3.3582,-0.3461 -5.4938,-0.3461 h -2.488 v -3.7091 h 39.0478 v 3.7091 h -2.4179 c -2.4052,0 -4.4201,0.5077 -6.0404,1.5186 -1.6404,1.0235 -2.8565,2.5474 -3.6439,4.5674 z m -24.9872,-63.8793 18.8184,47.1198 c 6.2617,-16.0478 12.5237,-32.0956 18.7801,-48.1453 h -38.0081 z" /></g></svg>